# xmcd
#
# Track frame offsets:
#	150
#	12601
#	25373
#	37111
#	48974
#	61096
#	74141
#	86708
#	98246
#	111852
#	123444
#	136711
#	148273
#	161615
#	174750
#	187393
#	196558
#	208301
#	220860
#	233344
#	244251
#	257489
#	267223
#	277824
#
# Disc length: 3847 seconds
#
# Revision: 0
# Processed by: cddbd v1.5.1PL0 Copyright (c) Steve Scherf et al.
# Submitted via: dBpowerAMP V4.0
#
DISCID=610f0518
DTITLE=Marty Robbins - Sing Me Something Sentimental
DYEAR=2005
DGENRE=Country
TTITLE0=Tomorrow You'll Be Gone
TTITLE1=I Wish Somebody Loved Me
TTITLE2=Love Me Or Leave Me Alone
TTITLE3=Crying Cause I Love You
TTITLE4=I'll Go On Alone
TTITLE5=Your're Breaking My Heart
TTITLE6=I couldn't Keep From Crying
TTITLE7=After You Leave
TTITLE8=A Castle In The Sky
TTITLE9=A Half-Way Chance With You
TTITLE10=Sing Me Something Sentimental
TTITLE11=At The End Of A Long, Lonely Day
TTITLE12=Blessed Jesus, Should I Fall Don't Let Me Lay
TTITLE13=Kneel And Let The Lord Take Your Load
TTITLE14=Don't Make Me Ashamed
TTITLE15=It's A Long, Long Ride
TTITLE16=Pretty Words
TTITLE17=Your Heart's Turn To Break
TTITLE18=My Isle Of Golden Dreams
TTITLE19=Aloha Oe (Farewell To Thee)
TTITLE20=I'm Too Big To Cry
TTITLE21=Call Me Up (And I'll Come Calling On You)
TTITLE22=It's A Pity What Money Can Do
TTITLE23=Time Goes By
EXTD=
EXTT0=
EXTT1=
EXTT2=
EXTT3=
EXTT4=
EXTT5=
EXTT6=
EXTT7=
EXTT8=
EXTT9=
EXTT10=
EXTT11=
EXTT12=
EXTT13=
EXTT14=
EXTT15=
EXTT16=
EXTT17=
EXTT18=
EXTT19=
EXTT20=
EXTT21=
EXTT22=
EXTT23=
PLAYORDER=
